<svg class="" xmlns="http://www.w3.org/2000/svg" enable-background="new" version="1.1" viewBox="0 0 300.01 299.99">
            <g fill="#fff" font-family="'-apple-system', BlinkMacSystemFont, 'Segoe UI', Roboto, Oxygen-Sans, Ubuntu, Cantarell, 'Helvetica Neue', sans-serif" letter-spacing="0px" word-spacing="0px">
             <text x="86.722862" y="119.88541" font-size="19.863px" font-weight="300" stroke-width="2.4828" style="line-height:1.25" xml:space="preserve"><tspan x="86.722862" y="138.27203" font-family="'-apple-system', BlinkMacSystemFont, 'Segoe UI', Roboto, Oxygen-Sans, Ubuntu, Cantarell, 'Helvetica Neue', sans-serif" font-size="13.242px" font-weight="300" stroke-width="2.4828" style="line-height:0"/></text>
             <g fill-opacity=".50087">
              <g font-size="29.225px" font-weight="300" stroke-width="5.4797">
               <text transform="rotate(90.258)" x="139.93396" y="-258.00882" enable-background="new" style="line-height:1.25" xml:space="preserve"><tspan x="139.93396" y="-258.00882" fill="#ffffff" fill-opacity=".50087" font-family="'-apple-system', BlinkMacSystemFont, 'Segoe UI', Roboto, Oxygen-Sans, Ubuntu, Cantarell, 'Helvetica Neue', sans-serif" font-weight="300" stroke-width="5.4797">E</tspan></text>
               <text transform="rotate(-90.85)" x="-150.45518" y="40.030582" enable-background="new" style="line-height:1.25" xml:space="preserve"><tspan x="-150.45518" y="40.030582" fill="#ffffff" fill-opacity=".50087" font-family="'-apple-system', BlinkMacSystemFont, 'Segoe UI', Roboto, Oxygen-Sans, Ubuntu, Cantarell, 'Helvetica Neue', sans-serif" font-weight="300" stroke-width="5.4797" text-align="center" text-anchor="middle">W</tspan></text>
               <text transform="rotate(179.44)" x="-155.33934" y="-259.67517" enable-background="new" style="line-height:1.25" xml:space="preserve"><tspan x="-155.33934" y="-259.67517" fill="#ffffff" fill-opacity=".50087" font-family="'-apple-system', BlinkMacSystemFont, 'Segoe UI', Roboto, Oxygen-Sans, Ubuntu, Cantarell, 'Helvetica Neue', sans-serif" font-weight="300" stroke-width="5.4797">S</tspan></text>
              </g>
              <g font-size="27.276px" stroke-width="5.1143">
               <g font-weight="300">
                <text transform="rotate(209.43)" x="-216.74617" y="-165.92647" enable-background="new" style="line-height:1.25" xml:space="preserve"><tspan x="-216.74617" y="-165.92647" fill="#ffffff" fill-opacity=".50087" font-family="'-apple-system', BlinkMacSystemFont, 'Segoe UI', Roboto, Oxygen-Sans, Ubuntu, Cantarell, 'Helvetica Neue', sans-serif" font-weight="300" letter-spacing="-3.5401px" stroke-width="5.1143">21</tspan></text>
                <text transform="rotate(239.37)" x="-219.38029" y="-55.692268" enable-background="new" style="line-height:1.25" xml:space="preserve"><tspan x="-219.38029" y="-55.692268" fill="#ffffff" fill-opacity=".50087" font-family="'-apple-system', BlinkMacSystemFont, 'Segoe UI', Roboto, Oxygen-Sans, Ubuntu, Cantarell, 'Helvetica Neue', sans-serif" font-weight="300" letter-spacing="-.796px" stroke-width="5.1143">24</tspan></text>
                <text transform="rotate(148.83)" x="-60.87014" y="-315.86761" enable-background="new" style="line-height:1.25" xml:space="preserve"><tspan x="-60.87014" y="-315.86761" fill="#ffffff" fill-opacity=".50087" font-family="'-apple-system', BlinkMacSystemFont, 'Segoe UI', Roboto, Oxygen-Sans, Ubuntu, Cantarell, 'Helvetica Neue', sans-serif" font-weight="300" letter-spacing="-3.5401px" stroke-width="5.1143">15</tspan></text>
                <text transform="rotate(120.04)" x="41.348434" y="-313.43558" enable-background="new" style="line-height:1.25" xml:space="preserve"><tspan x="41.348434" y="-313.43558" fill="#ffffff" fill-opacity=".50087" font-family="'-apple-system', BlinkMacSystemFont, 'Segoe UI', Roboto, Oxygen-Sans, Ubuntu, Cantarell, 'Helvetica Neue', sans-serif" font-weight="300" letter-spacing="-3.5401px" stroke-width="5.1143">12</tspan></text>
                <text transform="rotate(57.799)" x="211.26607" y="-155.50247" enable-background="new" style="line-height:1.25" xml:space="preserve"><tspan x="211.26607" y="-155.50247" fill="#ffffff" fill-opacity=".50087" font-family="'-apple-system', BlinkMacSystemFont, 'Segoe UI', Roboto, Oxygen-Sans, Ubuntu, Cantarell, 'Helvetica Neue', sans-serif" font-weight="300" stroke-width="5.1143" text-align="center" text-anchor="middle">6</tspan></text>
               </g>
               <text transform="rotate(28.501)" x="206.76938" y="-46.420551" enable-background="new" style="line-height:1.25" xml:space="preserve"><tspan x="206.76938" y="-46.420551" fill="#ffffff" fill-opacity=".50087" font-family="'-apple-system', BlinkMacSystemFont, 'Segoe UI', Roboto, Oxygen-Sans, Ubuntu, Cantarell, 'Helvetica Neue', sans-serif" font-weight="300" stroke-width="5.1143" text-align="center" text-anchor="middle">3</tspan></text>
              </g>
              <g font-weight="300">
               <text transform="rotate(.49611)" x="150.26476" y="39.476105" enable-background="new" font-size="29.225px" stroke-width="5.4797" style="line-height:1.25" xml:space="preserve"><tspan x="150.26476" y="39.476105" fill="#ffffff" fill-opacity=".50087" font-family="'-apple-system', BlinkMacSystemFont, 'Segoe UI', Roboto, Oxygen-Sans, Ubuntu, Cantarell, 'Helvetica Neue', sans-serif" font-weight="300" stroke-width="5.4797" text-align="center" text-anchor="middle">N</tspan></text>
               <text transform="rotate(-30.171)" x="39.494804" y="95.995491" enable-background="new" font-size="27.276px" stroke-width="5.1143" style="line-height:1.25" xml:space="preserve"><tspan x="39.494804" y="95.995491" fill="#ffffff" fill-opacity=".50087" font-family="'-apple-system', BlinkMacSystemFont, 'Segoe UI', Roboto, Oxygen-Sans, Ubuntu, Cantarell, 'Helvetica Neue', sans-serif" font-weight="300" stroke-width="5.1143">33</tspan></text>
               <text transform="rotate(-58.044)" x="-66.183044" y="97.698242" enable-background="new" font-size="27.276px" stroke-width="5.1143" style="line-height:1.25" xml:space="preserve"><tspan x="-66.183044" y="97.698242" fill="#ffffff" fill-opacity=".50087" font-family="'-apple-system', BlinkMacSystemFont, 'Segoe UI', Roboto, Oxygen-Sans, Ubuntu, Cantarell, 'Helvetica Neue', sans-serif" font-weight="300" letter-spacing="-1.4244px" stroke-width="5.1143">30</tspan></text>
              </g>
             </g>
            </g>
            <g transform="translate(-112.98 140.37)" opacity=".99">
             <text x="13.86202" y="253.8631" fill="#000000" font-family="'-apple-system', BlinkMacSystemFont, 'Segoe UI', Roboto, Oxygen-Sans, Ubuntu, Cantarell, 'Helvetica Neue', sans-serif" font-size="5.3333px" font-weight="300" letter-spacing="0px" word-spacing="0px" style="line-height:1.25" xml:space="preserve"><tspan x="13.86202" y="258.80008"/></text>
            </g>
            <text x="412.58948" y="128.15021" fill="#ffffff" font-family="'-apple-system', BlinkMacSystemFont, 'Segoe UI', Roboto, Oxygen-Sans, Ubuntu, Cantarell, 'Helvetica Neue', sans-serif" font-size="19.863px" font-weight="300" letter-spacing="0px" stroke-width="2.4828" word-spacing="0px" style="line-height:1.25" xml:space="preserve"><tspan x="412.58948" y="146.53683" font-family="'-apple-system', BlinkMacSystemFont, 'Segoe UI', Roboto, Oxygen-Sans, Ubuntu, Cantarell, 'Helvetica Neue', sans-serif" font-size="13.242px" font-weight="300" stroke-width="2.4828" style="line-height:0"/></text>
            <text x="420.5242" y="119.88541" fill="#ffffff" font-family="'-apple-system', BlinkMacSystemFont, 'Segoe UI', Roboto, Oxygen-Sans, Ubuntu, Cantarell, 'Helvetica Neue', sans-serif" font-size="19.863px" font-weight="300" letter-spacing="0px" stroke-width="2.4828" word-spacing="0px" style="line-height:1.25" xml:space="preserve"><tspan x="420.5242" y="138.27203" font-family="'-apple-system', BlinkMacSystemFont, 'Segoe UI', Roboto, Oxygen-Sans, Ubuntu, Cantarell, 'Helvetica Neue', sans-serif" font-size="13.242px" font-weight="300" stroke-width="2.4828" style="line-height:0"/></text>
            <path d="m149.86 0.61523 0.00195 14.389a135 135 0 0 1 0.02539-0.001953l-0.02734-14.387zm74.709 19.975-7.1934 12.461a135 135 0 0 1 0.02149 0.011719l7.1719-12.473zm-149.38 0.078125 7.3555 12.738a135 135 0 0 1 0.021484-0.011719l-7.377-12.727zm204.11 54.572-12.461 7.1895a135 135 0 0 1 0.01368 0.021484l12.447-7.2109zm-258.73 0.13477 12.738 7.3594a135 135 0 0 1 0.013672-0.023437l-12.752-7.3359zm264.43 74.539a135 135 0 0 1 0 0.02539l14.387-0.01953-14.387-0.00586zm-269.99 0.14258-14.379 0.01953 14.381 0.00586a135 135 0 0 1-0.001953-0.02539zm251.69 67.199a135 135 0 0 1-0.01172 0.02148l12.762 7.3438-12.75-7.3652zm-233.31 0.15625-12.674 7.3438 12.686-7.3203a135 135 0 0 1-0.011719-0.02344zm184.07 49.168a135 135 0 0 1-0.02148 0.01172l7.3828 12.736-7.3613-12.748zm-134.71 0.11719-7.3047 12.707 7.3281-12.693a135 135 0 0 1-0.023438-0.01367zm67.402 18.285a135 135 0 0 1-0.02539 0.00196l0.02735 14.395-0.00196-14.396z" fill="#fff" opacity=".4" stop-color="#000000" stroke="#fff" stroke-linecap="round" stroke-linejoin="round" stroke-width="1.5"/>
            <path d="m162.88 1.1758-0.81445 9.3711h8e-3zm-26.037 0.0137 0.85351 9.6875h8e-3zm38.959 1.6816-1.6289 9.2676 8e-3 2e-3zm-51.879 0.0254 1.6797 9.5 0.01-2e-3zm64.605 2.7871-2.4277 9.0801 8e-3 4e-3zm-77.324 0.041 2.4863 9.2617 0.01-2e-3zm89.756 3.8711-3.2012 8.8086 8e-3 4e-3zm-102.18 0.0547 3.3418 9.168 8e-3 -4e-3zm114.23 4.9277-3.957 8.4961 8e-3 4e-3zm-126.26 0.0645 4.0156 8.6016 8e-3 -4e-3zm148.82 12.943-5.3808 7.6914 6e-3 4e-3zm-171.36 0.0879 5.5703 7.9473 6e-3 -4e-3zm181.71 7.8398-6.0215 7.1816 6e-3 6e-3zm-192.04 0.0996 6.1426 7.3145 6e-3 -4e-3zm201.66 8.6992-6.6074 6.6133 6e-3 4e-3zm-211.25 0.10938 6.9141 6.9082 6e-3 -6e-3zm220.07 9.4941-7.1797 6.0293 4e-3 6e-3zm-228.86 0.11914 7.3281 6.1445 4e-3 -6e-3zm236.8 10.215-7.6875 5.3867 4e-3 6e-3zm-244.73 0.12696 7.9453 5.5605 6e-3 -6e-3zm257.77 22.418-8.4883 3.959 4e-3 8e-3zm-270.77 0.14063 8.5898 4.0039 4e-3 -8e-3zm275.77 11.896-8.8086 3.207 4e-3 8e-3zm-280.74 0.14453 9.168 3.3359 2e-3 -8e-3zm284.67 12.281-9.0781 2.4336 2e-3 8e-3zm-288.58 0.15039 9.2734 2.4844 2e-3 -0.01zm291.41 12.572-9.2656 1.6348 2e-3 8e-3zm-294.22 0.15234 9.4883 1.6719 2e-3 -8e-3zm295.93 12.766-9.3633 0.82031v8e-3zm-297.62 0.15625 9.6894 0.84766v-0.01zm287.96 25.035v0.01l9.6894 0.83789zm-278.26 0.14843-9.6738 0.85547 9.6738-0.84765v-8e-3zm276.77 11.949-2e-3 8e-3 9.4922 1.6641zm-275.26 0.14453-9.4688 1.6797 9.4707-1.6719-2e-3 -8e-3zm272.67 11.768-2e-3 0.01 9.2734 2.4746zm-270.08 0.15235-9.2285 2.4824 9.2305-2.4746-2e-3 -8e-3zm266.28 11.428-2e-3 8e-3 9.168 3.3262zm-262.46 0.15039-9.1192 3.3301 9.123-3.3223-4e-3 -8e-3zm258.06 11.223-4e-3 8e-3 8.5938 3.9961zm-253.63 0.14843-8.5449 3.9961 8.5488-3.9883-4e-3 -8e-3zm241.28 20.854-6e-3 6e-3 7.9512 5.5547zm-228.9 0.15234-7.8867 5.5352 7.8926-5.5293-6e-3 -6e-3zm221.59 9.6055-4e-3 6e-3 7.332 6.1387zm-214.28 0.16211-7.2559 6.1016 7.2598-6.0957-4e-3 -6e-3zm205.9 8.6875-6e-3 6e-3 6.9199 6.9023zm-197.49 0.14844-6.8516 6.8691 6.8574-6.8633-6e-3 -6e-3zm188.66 8.2539-6e-3 4e-3 6.1484 7.3106zm-179.8 0.13476-6.0918 7.2793 6.0996-7.2734-8e-3 -6e-3zm170.04 7.1719-6e-3 4e-3 5.5762 7.9434zm-160.28 0.14062-5.5117 7.8945 5.5195-7.8887-8e-3 -6e-3zm139.3 12.234-8e-3 6e-3 4.0234 8.5976zm-118.28 0.125-3.9688 8.543 3.9766-8.5391-8e-3 -4e-3zm106.92 4.3027-8e-3 2e-3 3.3496 9.166zm-95.531 0.0918-3.3086 9.1289 3.3164-9.125-8e-3 -4e-3zm83.959 3.7383-8e-3 2e-3 2.4961 9.2617zm-72.373 0.0586-2.4629 9.2461 2.4726-9.2461h-0.01zm60.463 2.5332-0.01 2e-3 1.6895 9.498zm-48.545 0.0586-1.6543 9.4668 1.6641-9.4648-0.01-2e-3zm36.445 1.4609 0.86133 9.6875-0.85352-9.6875h-8e-3zm-24.346 0.0195-0.83204 9.6816 0.8418-9.6816h-0.01z" fill="#f00" opacity=".17" stop-color="#000000" stroke="#fff" stroke-linecap="round" stroke-linejoin="round" stroke-width="1.057"/>
           </svg>