<svg viewBox="0 0 450 601" fill="none" xmlns="http://www.w3.org/2000/svg">
<path d="M395.606 254.417C400.677 263.53 400.824 274.877 396.652 287.658C392.48 300.439 384.002 314.602 371.905 329.278C347.712 358.626 309.116 389.942 261.844 416.245C214.573 442.548 167.615 458.837 129.922 463.923C111.074 466.466 94.5693 466.204 81.5091 463.012C68.4498 459.819 58.8847 453.712 53.8142 444.599C48.7437 435.486 48.596 424.139 52.7679 411.358C56.94 398.577 65.4184 384.414 77.5156 369.738C101.708 340.389 140.304 309.074 187.576 282.771C234.848 256.468 281.805 240.179 319.498 235.093C338.346 232.55 354.851 232.812 367.911 236.004C380.971 239.197 390.536 245.304 395.606 254.417Z" stroke="#E3CC63"/>
<path d="M344.324 413.69C340.412 420.54 332.725 424.961 321.906 426.945C311.093 428.928 297.292 428.445 281.415 425.613C249.668 419.95 209.843 404.937 169.49 381.889C129.138 358.841 95.9745 332.164 74.9693 307.697C64.4637 295.46 57.0366 283.818 53.2511 273.497C49.4635 263.17 49.3663 254.303 53.2788 247.453C57.1913 240.603 64.8779 236.182 75.6973 234.198C86.5105 232.215 100.311 232.698 116.189 235.531C147.935 241.193 187.76 256.206 228.113 279.254C268.465 302.302 301.629 328.979 322.634 353.446C333.14 365.683 340.567 377.325 344.352 387.646C348.14 397.973 348.237 406.84 344.324 413.69Z" stroke="#E3CC63" stroke-width="2"/>
<path d="M373.488 421.31C373.323 422.956 372.121 424.55 369.762 426.056C367.413 427.557 364.002 428.912 359.617 430.102C350.853 432.48 338.317 434.167 322.906 435.099C292.093 436.962 249.88 435.8 203.575 431.167C157.27 426.535 115.664 419.311 85.8304 411.381C70.9098 407.415 58.9566 403.278 50.8371 399.21C46.7748 397.175 43.7003 395.171 41.6946 393.235C39.6814 391.291 38.8182 389.49 38.9829 387.844C39.1476 386.198 40.3504 384.604 42.7088 383.097C45.0584 381.597 48.4689 380.242 52.8539 379.052C61.6182 376.673 74.1541 374.986 89.5647 374.055C120.378 372.192 162.591 373.354 208.896 377.986C255.201 382.619 296.807 389.843 326.641 397.773C341.561 401.739 353.514 405.876 361.634 409.944C365.696 411.979 368.771 413.983 370.776 415.919C372.79 417.863 373.653 419.664 373.488 421.31Z" stroke="#E3CC63"/>
<path d="M109.559 112.768C107.479 112.768 105.527 112.336 103.703 111.472C101.911 110.576 100.327 109.36 98.9507 107.824C97.6067 106.288 96.5187 104.48 95.6867 102.4C94.8547 100.32 94.3907 98.08 94.2947 95.68C94.1987 93.152 94.4867 90.8 95.1587 88.624C95.8627 86.416 96.8387 84.496 98.0867 82.864C99.3667 81.232 100.871 79.952 102.599 79.024C104.359 78.096 106.263 77.632 108.311 77.632C110.359 77.632 112.295 78.08 114.119 78.976C115.943 79.84 117.527 81.04 118.871 82.576C120.247 84.112 121.351 85.92 122.183 88C123.015 90.08 123.479 92.32 123.575 94.72C123.671 97.248 123.367 99.616 122.663 101.824C121.991 104 121.015 105.904 119.735 107.536C118.487 109.168 116.983 110.448 115.223 111.376C113.495 112.304 111.607 112.768 109.559 112.768ZM103.415 96.304C104.151 101.488 105.111 105.216 106.295 107.488C107.511 109.76 109.095 110.784 111.047 110.56C112.999 110.304 114.247 108.88 114.791 106.288C115.335 103.664 115.223 99.6 114.455 94.096C113.751 88.912 112.791 85.184 111.575 82.912C110.359 80.608 108.775 79.584 106.823 79.84C104.871 80.064 103.623 81.488 103.079 84.112C102.535 86.736 102.647 90.8 103.415 96.304ZM127.131 112C126.587 110.88 126.187 109.872 125.931 108.976C125.675 108.048 125.547 107.12 125.547 106.192C125.547 105.104 125.771 104.096 126.219 103.168C126.667 102.24 127.387 101.36 128.379 100.528C129.371 99.696 130.651 98.912 132.219 98.176C133.787 97.408 135.691 96.656 137.931 95.92C138.219 95.824 138.427 95.696 138.555 95.536C138.683 95.344 138.715 95.168 138.651 95.008C138.619 94.848 138.475 94.72 138.219 94.624C137.995 94.528 137.675 94.496 137.259 94.528C136.395 94.592 135.259 94.864 133.851 95.344C132.475 95.824 131.019 96.384 129.483 97.024C128.139 97.568 127.227 97.728 126.747 97.504C126.267 97.248 126.027 96.448 126.027 95.104V88.72C126.027 86.224 125.883 84.176 125.595 82.576C125.339 80.944 124.923 79.584 124.347 78.496V78.4H147.627V86.8C147.627 87.568 147.243 87.824 146.475 87.568C145.643 87.28 144.795 87.008 143.931 86.752C143.067 86.496 142.219 86.272 141.387 86.08C140.587 85.856 139.819 85.696 139.083 85.6C138.379 85.472 137.787 85.408 137.307 85.408C136.283 85.408 135.451 85.648 134.811 86.128C134.171 86.576 133.851 87.2 133.851 88V91.36C133.851 91.936 134.027 92.32 134.379 92.512C134.731 92.672 135.163 92.752 135.675 92.752C136.219 92.72 136.811 92.656 137.451 92.56C138.091 92.432 138.699 92.368 139.275 92.368C140.203 92.368 140.955 92.576 141.531 92.992C142.107 93.408 142.395 93.968 142.395 94.672C142.395 95.312 142.171 95.84 141.723 96.256C141.275 96.672 140.507 97.152 139.419 97.696C137.883 98.432 136.811 99.296 136.203 100.288C135.627 101.28 135.339 102.624 135.339 104.32C135.339 104.864 135.419 105.472 135.579 106.144C135.771 106.816 136.011 107.488 136.299 108.16C136.587 108.832 136.923 109.488 137.307 110.128C137.723 110.768 138.155 111.328 138.603 111.808V112H127.131ZM148.438 111.904C149.014 110.816 149.43 109.472 149.686 107.872C149.974 106.24 150.118 104.176 150.118 101.68V88.72C150.118 86.224 149.974 84.176 149.686 82.576C149.43 80.944 149.014 79.584 148.438 78.496V78.4H163.078C164.71 78.4 166.198 78.64 167.542 79.12C168.918 79.6 170.102 80.272 171.094 81.136C172.118 82 172.902 83.056 173.446 84.304C174.022 85.52 174.31 86.88 174.31 88.384C174.31 90.272 173.99 92.048 173.35 93.712C172.742 95.344 171.894 96.768 170.806 97.984C169.75 99.2 168.486 100.16 167.014 100.864C165.574 101.568 164.022 101.92 162.358 101.92C161.366 101.92 160.374 101.728 159.382 101.344C158.422 100.928 157.558 100.336 156.79 99.568C156.054 98.8 155.478 97.856 155.062 96.736C154.646 95.616 154.502 94.336 154.63 92.896C154.726 91.968 155.046 91.584 155.59 91.744C157.286 92.288 159.078 92.704 160.966 92.992C162.886 93.28 164.646 93.344 166.246 93.184C167.846 93.024 169.158 92.608 170.182 91.936C171.238 91.264 171.766 90.256 171.766 88.912C171.766 87.824 171.238 86.976 170.182 86.368C169.158 85.728 167.83 85.408 166.198 85.408C164.118 85.408 162.23 85.616 160.534 86.032C158.87 86.448 157.43 87.04 156.214 87.808C155.03 88.544 154.102 89.424 153.43 90.448C152.79 91.472 152.47 92.592 152.47 93.808C152.47 96.528 153.142 99.232 154.486 101.92C155.83 104.576 157.894 107.36 160.678 110.272C160.966 110.592 161.11 110.96 161.11 111.376C161.142 111.792 160.886 112 160.342 112H148.438V111.904ZM201.571 112.384C199.747 112.384 198.195 111.264 196.915 109.024C195.667 106.752 194.723 103.472 194.083 99.184C193.923 98.192 193.731 97.024 193.507 95.68C193.315 94.304 193.123 92.976 192.931 91.696C192.739 90.416 192.563 89.28 192.403 88.288C192.243 87.296 192.131 86.656 192.067 86.368C191.907 85.536 191.507 85.12 190.867 85.12C190.195 85.12 189.699 85.616 189.379 86.608C189.091 87.568 188.947 88.768 188.947 90.208C188.947 91.808 189.123 93.28 189.475 94.624C189.827 95.968 190.227 97.232 190.675 98.416C191.155 99.6 191.603 100.736 192.019 101.824C192.467 102.912 192.771 104 192.931 105.088C193.123 106.144 193.107 107.248 192.883 108.4C192.659 109.52 192.115 110.72 191.251 112H184.675V111.904C185.251 110.816 185.667 109.472 185.923 107.872C186.211 106.24 186.355 104.176 186.355 101.68V89.056C186.355 87.328 186.531 85.76 186.883 84.352C187.235 82.944 187.731 81.744 188.371 80.752C189.043 79.76 189.827 78.992 190.723 78.448C191.619 77.904 192.595 77.632 193.651 77.632C194.483 77.632 195.251 77.84 195.955 78.256C196.691 78.672 197.347 79.248 197.923 79.984C198.499 80.72 198.979 81.6 199.363 82.624C199.779 83.648 200.083 84.752 200.275 85.936L202.867 102.4C202.963 103.136 203.187 103.504 203.539 103.504C203.635 103.504 203.731 103.488 203.827 103.456C203.955 103.392 204.067 103.264 204.163 103.072C204.259 102.88 204.339 102.592 204.403 102.208C204.467 101.824 204.499 101.312 204.499 100.672C204.499 99.648 204.483 98.192 204.451 96.304C204.419 94.384 204.403 91.968 204.403 89.056C204.403 87.456 204.611 85.968 205.027 84.592C205.443 83.184 206.019 81.968 206.755 80.944C207.491 79.92 208.339 79.12 209.299 78.544C210.291 77.936 211.363 77.632 212.515 77.632C214.819 77.632 216.563 78.64 217.747 80.656C218.963 82.672 219.571 85.472 219.571 89.056V101.68C219.571 104.176 219.699 106.24 219.955 107.872C220.243 109.472 220.675 110.816 221.251 111.904V112H212.659C212.019 112 211.395 111.744 210.787 111.232C210.179 110.688 209.763 110.048 209.539 109.312C209.155 107.904 209.059 106.656 209.251 105.568C209.443 104.448 209.731 103.232 210.115 101.92C210.531 100.608 210.931 99.072 211.315 97.312C211.699 95.552 211.891 93.312 211.891 90.592C211.891 89.888 211.843 89.2 211.747 88.528C211.683 87.856 211.539 87.28 211.315 86.8C211.123 86.288 210.867 85.888 210.547 85.6C210.227 85.28 209.827 85.12 209.347 85.12C208.611 85.12 208.051 85.712 207.667 86.896C207.283 88.08 207.059 90.064 206.995 92.848C206.963 94.032 206.979 95.52 207.043 97.312C207.107 99.104 207.139 101.168 207.139 103.504C207.139 106.512 206.627 108.752 205.603 110.224C204.579 111.664 203.235 112.384 201.571 112.384ZM237.246 112.768C235.166 112.768 233.214 112.336 231.39 111.472C229.598 110.576 228.014 109.36 226.638 107.824C225.294 106.288 224.206 104.48 223.374 102.4C222.542 100.32 222.078 98.08 221.982 95.68C221.886 93.152 222.174 90.8 222.846 88.624C223.55 86.416 224.526 84.496 225.774 82.864C227.054 81.232 228.558 79.952 230.286 79.024C232.046 78.096 233.95 77.632 235.998 77.632C238.046 77.632 239.982 78.08 241.806 78.976C243.63 79.84 245.214 81.04 246.558 82.576C247.934 84.112 249.038 85.92 249.87 88C250.702 90.08 251.166 92.32 251.262 94.72C251.358 97.248 251.054 99.616 250.35 101.824C249.678 104 248.702 105.904 247.422 107.536C246.174 109.168 244.67 110.448 242.91 111.376C241.182 112.304 239.294 112.768 237.246 112.768ZM231.102 96.304C231.838 101.488 232.798 105.216 233.982 107.488C235.198 109.76 236.782 110.784 238.734 110.56C240.686 110.304 241.934 108.88 242.478 106.288C243.022 103.664 242.91 99.6 242.142 94.096C241.438 88.912 240.478 85.184 239.262 82.912C238.046 80.608 236.462 79.584 234.51 79.84C232.558 80.064 231.31 81.488 230.766 84.112C230.222 86.736 230.334 90.8 231.102 96.304ZM251.891 111.904C252.467 110.816 252.883 109.472 253.139 107.872C253.427 106.24 253.571 104.176 253.571 101.68V88.72C253.571 86.224 253.427 84.176 253.139 82.576C252.883 80.944 252.467 79.584 251.891 78.496V78.4H261.203C264.083 78.4 266.627 78.784 268.835 79.552C271.043 80.288 272.899 81.376 274.403 82.816C275.939 84.224 277.091 85.936 277.859 87.952C278.627 89.968 279.011 92.224 279.011 94.72C279.011 97.44 278.627 99.872 277.859 102.016C277.091 104.16 275.939 105.968 274.403 107.44C272.867 108.912 270.947 110.048 268.643 110.848C266.371 111.616 263.731 112 260.723 112H251.891V111.904ZM261.395 101.68C261.395 103.248 261.411 104.56 261.443 105.616C261.507 106.672 261.635 107.536 261.827 108.208C262.019 108.848 262.291 109.312 262.643 109.6C262.995 109.856 263.459 109.984 264.035 109.984C265.027 109.984 265.923 109.632 266.723 108.928C267.555 108.224 268.243 107.216 268.787 105.904C269.363 104.56 269.779 102.96 270.035 101.104C270.323 99.216 270.419 97.104 270.323 94.768C270.227 92.656 269.971 90.72 269.555 88.96C269.171 87.168 268.659 85.648 268.019 84.4C267.411 83.12 266.707 82.128 265.907 81.424C265.107 80.688 264.275 80.32 263.411 80.32C262.483 80.32 261.907 80.72 261.683 81.52C261.491 82.288 261.395 83.664 261.395 85.648V101.68ZM292.115 112.768C290.483 112.768 288.963 112.496 287.555 111.952C286.147 111.376 284.915 110.608 283.859 109.648C282.803 108.656 281.971 107.504 281.363 106.192C280.787 104.88 280.499 103.472 280.499 101.968C280.499 100.688 280.723 99.472 281.171 98.32C281.619 97.136 282.227 96 282.995 94.912C283.795 93.792 284.723 92.72 285.779 91.696C286.835 90.672 287.955 89.664 289.139 88.672C289.555 88.32 289.683 88 289.523 87.712C289.395 87.392 289.059 87.232 288.515 87.232C287.587 87.232 286.531 87.456 285.347 87.904C284.163 88.32 282.931 88.784 281.651 89.296C281.299 89.456 281.011 89.456 280.787 89.296C280.595 89.136 280.499 88.88 280.499 88.528V79.408C280.499 79.184 280.659 78.992 280.979 78.832C281.331 78.64 281.747 78.496 282.227 78.4C282.707 78.304 283.219 78.24 283.763 78.208C284.339 78.144 284.851 78.112 285.299 78.112C286.355 78.112 287.347 78.272 288.275 78.592C289.203 78.912 290.003 79.376 290.675 79.984C291.379 80.56 291.923 81.264 292.307 82.096C292.723 82.928 292.931 83.856 292.931 84.88C292.931 85.872 292.739 86.768 292.355 87.568C292.003 88.368 291.555 89.12 291.011 89.824C290.499 90.496 289.923 91.168 289.283 91.84C288.643 92.48 288.051 93.152 287.507 93.856C286.995 94.56 286.547 95.312 286.163 96.112C285.811 96.912 285.635 97.824 285.635 98.848C285.635 100.608 286.131 101.968 287.123 102.928C288.115 103.888 289.475 104.368 291.203 104.368C293.411 104.368 295.043 103.504 296.099 101.776C297.187 100.016 297.731 97.536 297.731 94.336V88.72C297.731 86.224 297.587 84.176 297.299 82.576C297.043 80.944 296.627 79.584 296.051 78.496V78.4H307.235V78.496C306.659 79.584 306.227 80.944 305.939 82.576C305.683 84.176 305.555 86.224 305.555 88.72V97.408C305.555 99.552 305.203 101.568 304.499 103.456C303.827 105.312 302.883 106.928 301.667 108.304C300.451 109.68 299.027 110.768 297.395 111.568C295.763 112.368 294.003 112.768 292.115 112.768ZM308.047 111.904C308.623 110.816 309.039 109.472 309.295 107.872C309.583 106.24 309.727 104.176 309.727 101.68V88.72C309.727 86.224 309.583 84.176 309.295 82.576C309.039 80.944 308.623 79.584 308.047 78.496V78.4H319.231C320.575 78.4 321.247 79.328 321.247 81.184C321.247 82.688 321.023 84.032 320.575 85.216C320.127 86.368 319.551 87.44 318.847 88.432C318.175 89.392 317.439 90.288 316.639 91.12C315.871 91.92 315.135 92.72 314.431 93.52C313.759 94.288 313.199 95.072 312.751 95.872C312.303 96.672 312.079 97.536 312.079 98.464C312.079 99.392 312.255 100.176 312.607 100.816C312.959 101.424 313.535 101.92 314.335 102.304C315.135 102.688 316.191 102.976 317.503 103.168C318.815 103.328 320.431 103.408 322.351 103.408C324.079 103.408 325.407 103.184 326.335 102.736C327.263 102.256 327.727 101.552 327.727 100.624C327.727 100.112 327.519 99.664 327.103 99.28C326.719 98.896 326.239 98.528 325.663 98.176C325.087 97.824 324.447 97.488 323.743 97.168C323.039 96.816 322.399 96.432 321.823 96.016C321.247 95.6 320.751 95.136 320.335 94.624C319.951 94.08 319.759 93.44 319.759 92.704C319.759 91.776 320.047 90.912 320.623 90.112C321.231 89.28 321.983 88.64 322.879 88.192C323.807 87.712 324.815 87.488 325.903 87.52C326.991 87.552 328.015 87.952 328.975 88.72C329.423 89.072 329.519 89.536 329.263 90.112C328.591 91.68 328.319 93.04 328.447 94.192C328.607 95.344 328.911 96.464 329.359 97.552C329.807 98.608 330.271 99.744 330.751 100.96C331.231 102.144 331.471 103.584 331.471 105.28C331.471 106.24 331.279 107.136 330.895 107.968C330.511 108.768 329.967 109.472 329.263 110.08C328.559 110.688 327.695 111.168 326.671 111.52C325.679 111.84 324.543 112 323.263 112H308.047V111.904ZM340.735 112C339.615 112 338.607 111.84 337.711 111.52C336.815 111.2 336.047 110.768 335.407 110.224C334.767 109.648 334.271 108.976 333.919 108.208C333.567 107.408 333.391 106.544 333.391 105.616C333.391 103.376 334.415 101.392 336.463 99.664C338.511 97.904 341.615 96.336 345.775 94.96C346.063 94.864 346.271 94.736 346.399 94.576C346.527 94.384 346.559 94.208 346.495 94.048C346.463 93.888 346.319 93.76 346.063 93.664C345.839 93.568 345.519 93.536 345.103 93.568C344.239 93.632 343.103 93.968 341.695 94.576C340.319 95.152 338.863 95.872 337.327 96.736C336.079 97.472 335.183 97.68 334.639 97.36C334.127 97.008 333.871 96.16 333.871 94.816V88.72C333.871 86.224 333.727 84.176 333.439 82.576C333.183 80.944 332.767 79.584 332.191 78.496V78.4H355.471V86.8C355.471 87.568 355.087 87.824 354.319 87.568C353.487 87.28 352.639 87.008 351.775 86.752C350.911 86.496 350.063 86.272 349.231 86.08C348.431 85.856 347.663 85.696 346.927 85.6C346.223 85.472 345.631 85.408 345.151 85.408C344.127 85.408 343.295 85.648 342.655 86.128C342.015 86.576 341.695 87.2 341.695 88V89.632C341.695 90.4 341.871 90.928 342.223 91.216C342.575 91.472 343.007 91.616 343.519 91.648C344.063 91.68 344.655 91.648 345.295 91.552C345.935 91.456 346.543 91.408 347.119 91.408C348.047 91.408 348.799 91.616 349.375 92.032C349.951 92.448 350.239 93.008 350.239 93.712C350.239 94.352 350.015 94.896 349.567 95.344C349.119 95.792 348.351 96.256 347.263 96.736C344.927 97.728 343.279 98.544 342.319 99.184C341.391 99.824 340.927 100.464 340.927 101.104C340.927 101.456 341.055 101.776 341.311 102.064C341.599 102.32 341.967 102.56 342.415 102.784C342.895 102.976 343.423 103.136 343.999 103.264C344.575 103.36 345.167 103.408 345.775 103.408C347.311 103.408 348.799 103.248 350.239 102.928C351.679 102.576 353.023 102.08 354.271 101.44C354.687 101.216 354.991 101.136 355.183 101.2C355.375 101.232 355.471 101.472 355.471 101.92V112H340.735Z" fill="#F6F4EB"/>
<path d="M64.5953 307.584V312.312H67.7873L66.8993 310.248L67.2113 310.104L72.6833 320.256L72.3953 320.424C72.3953 320.424 69.4913 315.216 68.8673 314.376C67.9073 313.056 66.8753 312.696 65.3153 312.696H64.5953V323.616H67.9793C68.7713 323.616 69.5153 323.592 70.0193 323.544C71.5073 323.448 72.5873 323.328 73.0673 320.712C73.4753 318.552 73.9313 313.824 73.9313 313.824L74.3153 313.848L73.2593 324H60.2753V323.664C60.2753 323.664 61.3793 323.64 61.6913 323.544C62.2433 323.4 62.4353 323.064 62.5073 322.608C62.5793 322.296 62.5793 321.72 62.5793 321.264V309.936C62.5793 309.48 62.5793 308.904 62.5073 308.592C62.4353 308.136 62.2433 307.8 61.6913 307.656C61.3793 307.56 60.2753 307.536 60.2753 307.536V307.2H71.8193L75.1313 314.136L74.7953 314.304L73.7873 312.192C72.5633 309.696 70.9313 307.824 68.5793 307.656C68.0753 307.608 67.4993 307.584 66.9713 307.584H64.5953ZM90.5492 307.416C87.7412 307.416 85.7492 311.616 84.7652 314.184C83.6372 318.408 81.4772 324.024 81.4772 324.024L79.3172 324C79.7012 322.944 80.2532 321.504 80.8772 320.04C80.6852 319.608 77.5172 312.528 76.2212 309.192C75.7412 307.704 76.9172 307.2 78.2132 307.2H82.6532C84.7412 307.2 85.4372 308.808 85.4372 310.536C85.4372 310.92 85.3892 311.4 85.2692 311.952C86.0852 310.248 87.9812 307.008 90.7652 307.008C93.4532 307.008 93.6692 309.048 93.6692 310.776C93.6692 310.92 93.6692 311.088 93.5972 311.16C93.7652 311.568 96.8132 318.768 98.1332 321.744C98.7812 323.304 97.9412 324.024 96.2852 324H91.5572C89.5412 324 88.3412 322.656 89.0372 320.52C90.5492 315.912 93.5972 307.416 90.5492 307.416ZM80.9972 319.416C82.8932 314.16 84.8372 307.584 81.6932 307.584H78.1892C76.9172 307.584 76.0532 308.088 76.7252 309.408C77.8292 312.24 80.2292 317.64 80.9972 319.416ZM93.5732 312.024C93.3092 313.728 92.6612 315.96 92.0612 317.832C90.8372 321.552 89.6852 323.496 92.4692 323.616H96.3092C96.9812 323.616 97.5812 323.52 97.8452 323.16C98.0852 322.824 98.0132 322.344 97.6532 321.552C96.4772 318.984 94.3652 313.944 93.5732 312.024ZM98.8699 307.224L104.606 307.2H112.358L112.286 305.112H112.622L112.886 307.488L113.942 316.104L113.606 316.152C113.606 316.152 113.198 313.608 113.03 312.408C112.526 308.808 111.806 307.656 109.262 307.608C108.758 307.608 107.87 307.584 107.87 307.584H106.622V323.496L108.806 323.664V324H102.374V323.688C102.374 323.688 103.43 323.664 103.718 323.592C104.294 323.424 104.438 323.112 104.51 322.68C104.558 322.392 104.606 321.792 104.606 321.384V307.608H103.358C103.358 307.608 102.47 307.632 101.966 307.632C99.4219 307.68 98.7019 308.832 98.1979 312.432C98.0299 313.632 97.6219 316.176 97.6219 316.176L97.2859 316.128L98.3419 307.512L98.6059 305.136H98.9419L98.8699 307.224ZM119.949 307.584V312.312H128.517L127.653 310.272L127.941 310.104L133.413 320.256L133.125 320.424C133.125 320.424 130.221 315.216 129.597 314.376C128.373 312.72 127.173 312.696 125.325 312.696H119.949V323.616H129.117C129.981 323.616 130.773 323.592 131.277 323.544C132.765 323.448 133.893 322.872 134.853 320.688C135.813 318.48 137.133 313.92 137.133 313.92L137.517 313.992L134.517 324H115.629V323.664C115.629 323.664 116.733 323.64 117.045 323.544C117.597 323.4 117.789 323.064 117.861 322.608C117.933 322.296 117.933 321.72 117.933 321.264V309.936C117.933 309.48 117.933 308.904 117.861 308.592C117.789 308.136 117.597 307.8 117.045 307.656C116.733 307.56 115.629 307.536 115.629 307.536V307.2H135.405L138.717 314.136L138.381 314.304L137.373 312.192C136.149 309.696 134.517 307.824 132.165 307.656C131.661 307.608 130.845 307.584 129.981 307.584H119.949ZM152.052 321.096L151.812 320.64C151.812 320.64 152.676 322.032 153.084 322.512C153.516 322.992 153.852 323.256 154.332 323.448C154.764 323.616 156.156 323.664 156.156 323.664V324H150.756V323.664L152.028 323.568L148.284 315.432C147.708 315.528 147.084 315.576 146.436 315.576H145.812V315.192H146.46C149.028 315.192 150.756 313.656 150.756 311.472C150.756 308.808 148.332 307.584 145.044 307.584H144.228V322.488L144.204 323.448L147.324 323.688V324H139.908V323.664C139.908 323.664 141.012 323.64 141.324 323.544C141.876 323.4 142.068 323.064 142.14 322.608C142.212 322.296 142.212 321.48 142.212 320.856V309.936C142.212 309.48 142.212 308.904 142.14 308.592C142.068 308.136 141.876 307.8 141.324 307.656C141.012 307.56 139.908 307.536 139.908 307.536V307.2H145.068C151.572 307.2 152.772 310.008 152.772 311.424C152.772 313.32 151.212 314.712 148.908 315.288L152.052 321.096ZM174.025 307.536L171.265 307.752L176.065 316.104L179.977 307.728L176.545 307.536V307.2H183.169V307.536C183.169 307.536 181.969 307.584 181.441 307.728C180.937 307.872 180.577 308.04 180.169 308.64C179.689 309.36 178.489 311.808 178.489 311.808L182.785 321.744C183.433 323.352 182.569 324.024 180.913 324H172.465C170.809 324.024 169.945 323.352 170.593 321.744C171.457 319.8 172.537 317.256 173.185 315.768L170.545 310.824C169.993 309.936 169.297 308.832 169.009 308.424C168.697 307.968 168.241 307.8 167.881 307.728C167.329 307.608 165.985 307.536 165.985 307.536V307.2H174.025V307.536ZM178.273 312.264L175.225 318.912L174.889 318.96L173.449 316.128C172.825 317.616 171.913 319.728 171.097 321.552C170.737 322.344 170.665 322.824 170.905 323.16C171.169 323.52 171.769 323.616 172.441 323.616H180.937C181.609 323.616 182.209 323.52 182.473 323.16C182.713 322.824 182.641 322.344 182.281 321.552L178.273 312.264ZM184.475 315.576C184.475 310.344 187.187 307.008 191.075 307.008C196.067 307.008 199.067 311.448 199.067 315.576C199.067 320.64 196.091 324.192 192.179 324.192C187.331 324.192 184.475 319.632 184.475 315.576ZM197.747 318.072C197.747 313.728 194.915 308.016 189.827 308.016C186.971 308.016 185.819 310.152 185.819 312.816C185.819 317.472 188.603 323.184 193.355 323.184C196.403 323.184 197.747 320.856 197.747 318.072ZM213.381 321.096L213.141 320.64C213.141 320.64 214.005 322.032 214.413 322.512C214.845 322.992 215.181 323.256 215.661 323.448C216.093 323.616 217.485 323.664 217.485 323.664V324H212.085V323.664L213.357 323.568L209.613 315.432C209.037 315.528 208.413 315.576 207.765 315.576H207.141V315.192H207.789C210.357 315.192 212.085 313.656 212.085 311.472C212.085 308.808 209.661 307.584 206.373 307.584H205.557V322.488L205.533 323.448L208.653 323.688V324H201.237V323.664C201.237 323.664 202.341 323.64 202.653 323.544C203.205 323.4 203.397 323.064 203.469 322.608C203.541 322.296 203.541 321.48 203.541 320.856V309.936C203.541 309.48 203.541 308.904 203.469 308.592C203.397 308.136 203.205 307.8 202.653 307.656C202.341 307.56 201.237 307.536 201.237 307.536V307.2H206.397C212.901 307.2 214.101 310.008 214.101 311.424C214.101 313.32 212.541 314.712 210.237 315.288L213.381 321.096ZM229.377 309.384C229.377 307.536 230.961 306.84 232.809 306.84C234.657 306.84 236.769 307.536 237.777 308.496L237.465 305.808L237.801 305.76L239.601 316.224C240.081 317.112 240.393 318.168 240.393 319.488C240.393 322.56 237.873 324.336 234.753 324.336C229.017 324.336 228.297 319.128 228.633 316.752L226.065 318.6L225.873 318.336L232.041 313.032C230.529 312.096 229.377 311.016 229.377 309.384ZM233.241 312L235.497 310.056L235.713 310.32L233.697 312.192C235.545 312.912 237.681 313.752 239.025 315.408C238.905 314.832 238.761 314.256 238.617 313.776C237.321 309.216 234.345 307.272 232.257 307.272C230.961 307.272 230.001 308.016 230.001 309.336C230.001 310.632 231.441 311.28 233.241 312ZM232.497 313.32L231.489 314.256C228.681 316.872 229.593 323.952 234.465 323.952C236.913 323.952 238.545 322.056 238.545 319.776C238.545 316.296 235.161 314.904 232.497 313.32ZM245.348 321.264V310.344C245.348 309.72 245.348 308.904 245.276 308.592C245.204 308.136 245.012 307.8 244.46 307.656C244.148 307.56 243.044 307.536 243.044 307.536V307.2H249.668V307.536C249.668 307.536 248.564 307.56 248.252 307.656C247.7 307.8 247.508 308.136 247.436 308.592C247.364 308.904 247.364 309.72 247.364 310.344V320.856C247.364 321.48 247.364 322.296 247.436 322.608C247.508 323.064 247.7 323.4 248.252 323.544C248.564 323.64 249.668 323.664 249.668 323.664V324H243.044V323.664C243.044 323.664 244.148 323.64 244.46 323.544C245.012 323.4 245.204 323.064 245.276 322.608C245.348 322.296 245.348 321.72 245.348 321.264ZM261.857 323.664L264.209 323.472V308.688L260.009 324H259.625L254.753 307.848V323.448L257.321 323.664V324H252.065V323.664C252.065 323.664 253.169 323.64 253.481 323.544C254.033 323.4 254.225 323.064 254.297 322.608C254.369 322.296 254.369 321.72 254.369 321.264V310.344C254.369 309.72 254.369 308.904 254.297 308.592C254.225 308.136 254.033 307.8 253.481 307.656C253.169 307.56 252.065 307.536 252.065 307.536V307.2H256.649L260.633 320.304L264.209 307.2H268.529V307.536C268.529 307.536 267.425 307.56 267.113 307.656C266.561 307.8 266.369 308.136 266.297 308.592C266.225 308.904 266.225 309.72 266.225 310.344V321.264C266.225 321.72 266.225 322.296 266.297 322.608C266.369 323.064 266.561 323.4 267.113 323.544C267.425 323.64 268.529 323.664 268.529 323.664V324H261.857V323.664ZM273.235 321.264V310.344C273.235 309.72 273.235 308.904 273.163 308.592C273.091 308.136 272.899 307.8 272.347 307.656C272.035 307.56 270.931 307.536 270.931 307.536V307.2H276.019C280.747 307.2 281.971 309 281.971 310.8C281.971 312.072 281.035 313.464 278.755 314.016C283.099 314.544 284.779 316.632 284.779 318.888C284.779 320.736 283.723 324 276.019 324H270.931V323.664C270.931 323.664 272.035 323.64 272.347 323.544C272.899 323.4 273.091 323.064 273.163 322.608C273.235 322.296 273.235 321.72 273.235 321.264ZM276.451 314.28V313.896H276.931C278.467 313.896 279.955 312.696 279.955 310.656C279.955 308.736 278.683 307.488 276.019 307.488H275.251V323.616H276.019C278.659 323.616 282.787 322.32 282.787 318.624C282.787 316.56 280.843 314.52 276.931 314.28H276.451ZM299.081 321.096L298.841 320.64C298.841 320.64 299.705 322.032 300.113 322.512C300.545 322.992 300.881 323.256 301.361 323.448C301.793 323.616 303.185 323.664 303.185 323.664V324H297.785V323.664L299.057 323.568L295.313 315.432C294.737 315.528 294.113 315.576 293.465 315.576H292.841V315.192H293.489C296.057 315.192 297.785 313.656 297.785 311.472C297.785 308.808 295.361 307.584 292.073 307.584H291.257V322.488L291.233 323.448L294.353 323.688V324H286.937V323.664C286.937 323.664 288.041 323.64 288.353 323.544C288.905 323.4 289.097 323.064 289.169 322.608C289.241 322.296 289.241 321.48 289.241 320.856V309.936C289.241 309.48 289.241 308.904 289.169 308.592C289.097 308.136 288.905 307.8 288.353 307.656C288.041 307.56 286.937 307.536 286.937 307.536V307.2H292.097C298.601 307.2 299.801 310.008 299.801 311.424C299.801 313.32 298.241 314.712 295.937 315.288L299.081 321.096ZM307.403 321.264V310.344C307.403 309.72 307.403 308.904 307.331 308.592C307.259 308.136 307.067 307.8 306.515 307.656C306.203 307.56 305.099 307.536 305.099 307.536V307.2H311.723V307.536C311.723 307.536 310.619 307.56 310.307 307.656C309.755 307.8 309.563 308.136 309.491 308.592C309.419 308.904 309.419 309.72 309.419 310.344V320.856C309.419 321.48 309.419 322.296 309.491 322.608C309.563 323.064 309.755 323.4 310.307 323.544C310.619 323.64 311.723 323.664 311.723 323.664V324H305.099V323.664C305.099 323.664 306.203 323.64 306.515 323.544C307.067 323.4 307.259 323.064 307.331 322.608C307.403 322.296 307.403 321.72 307.403 321.264ZM318.44 307.584V312.312H327.008L326.144 310.272L326.432 310.104L331.904 320.256L331.616 320.424C331.616 320.424 328.712 315.216 328.088 314.376C326.864 312.72 325.664 312.696 323.816 312.696H318.44V323.616H327.608C328.472 323.616 329.264 323.592 329.768 323.544C331.256 323.448 332.384 322.872 333.344 320.688C334.304 318.48 335.624 313.92 335.624 313.92L336.008 313.992L333.008 324H314.12V323.664C314.12 323.664 315.224 323.64 315.536 323.544C316.088 323.4 316.28 323.064 316.352 322.608C316.424 322.296 316.424 321.72 316.424 321.264V309.936C316.424 309.48 316.424 308.904 316.352 308.592C316.28 308.136 316.088 307.8 315.536 307.656C315.224 307.56 314.12 307.536 314.12 307.536V307.2H333.896L337.208 314.136L336.872 314.304L335.864 312.192C334.64 309.696 333.008 307.824 330.656 307.656C330.152 307.608 329.336 307.584 328.472 307.584H318.44ZM340.704 321.264V309.936C340.704 309.48 340.704 308.904 340.632 308.592C340.56 308.136 340.368 307.8 339.816 307.656C339.504 307.56 338.4 307.536 338.4 307.536V307.2H349.944L353.256 314.136L352.92 314.304L351.912 312.192C350.688 309.696 349.056 307.824 346.704 307.656C346.2 307.608 345.624 307.584 345.096 307.584H342.72V312.312H346.392L345.504 310.248L345.816 310.104L351.288 320.256L351 320.424C351 320.424 348.096 315.216 347.472 314.376C346.512 313.056 345.48 312.696 343.92 312.696H342.72V323.4L346.344 323.664V324H338.4V323.664C338.4 323.664 339.504 323.64 339.816 323.544C340.368 323.4 340.56 323.064 340.632 322.608C340.704 322.296 340.704 321.72 340.704 321.264ZM364.442 321.264V310.344C364.442 309.72 364.442 308.904 364.37 308.592C364.298 308.136 364.106 307.8 363.554 307.656C363.242 307.56 362.138 307.536 362.138 307.536V307.2H368.762V307.536C368.762 307.536 367.658 307.56 367.346 307.656C366.794 307.8 366.602 308.136 366.53 308.592C366.458 308.904 366.458 309.72 366.458 310.344V320.856C366.458 321.48 366.458 322.296 366.53 322.608C366.602 323.064 366.794 323.4 367.346 323.544C367.658 323.64 368.762 323.664 368.762 323.664V324H362.138V323.664C362.138 323.664 363.242 323.64 363.554 323.544C364.106 323.4 364.298 323.064 364.37 322.608C364.442 322.296 364.442 321.72 364.442 321.264ZM373.488 309.936C373.464 309.48 373.464 308.904 373.392 308.592C373.32 308.136 373.152 307.8 372.576 307.656C372.264 307.56 371.16 307.536 371.16 307.536V307.2H376.512C383.904 307.2 386.808 311.016 386.808 315.264C386.808 319.992 383.88 324 376.512 324H371.16V323.664C371.16 323.664 372.264 323.64 372.576 323.544C373.152 323.4 373.32 323.064 373.392 322.608C373.464 322.296 373.464 321.72 373.488 321.264V309.936ZM375.504 323.616H376.512C383.28 323.616 384.792 319.224 384.792 315.456C384.792 311.016 381.6 307.704 376.488 307.584H375.504V323.616ZM91.3441 341.576C91.3441 336.344 94.0561 333.008 97.9441 333.008C102.936 333.008 105.936 337.448 105.936 341.576C105.936 346.64 102.96 350.192 99.0481 350.192C94.2001 350.192 91.3441 345.632 91.3441 341.576ZM104.616 344.072C104.616 339.728 101.784 334.016 96.6961 334.016C93.8401 334.016 92.6881 336.152 92.6881 338.816C92.6881 343.472 95.4721 349.184 100.224 349.184C103.272 349.184 104.616 346.856 104.616 344.072ZM120.25 347.096L120.01 346.64C120.01 346.64 120.874 348.032 121.282 348.512C121.714 348.992 122.05 349.256 122.53 349.448C122.962 349.616 124.354 349.664 124.354 349.664V350H118.954V349.664L120.226 349.568L116.482 341.432C115.906 341.528 115.282 341.576 114.634 341.576H114.01V341.192H114.658C117.226 341.192 118.954 339.656 118.954 337.472C118.954 334.808 116.53 333.584 113.242 333.584H112.426V348.488L112.402 349.448L115.522 349.688V350H108.106V349.664C108.106 349.664 109.21 349.64 109.522 349.544C110.074 349.4 110.266 349.064 110.338 348.608C110.41 348.296 110.41 347.48 110.41 346.856V335.936C110.41 335.48 110.41 334.904 110.338 334.592C110.266 334.136 110.074 333.8 109.522 333.656C109.21 333.56 108.106 333.536 108.106 333.536V333.2H113.266C119.77 333.2 120.97 336.008 120.97 337.424C120.97 339.32 119.41 340.712 117.106 341.288L120.25 347.096ZM136.726 347.264V336.344C136.726 335.72 136.726 334.904 136.654 334.592C136.582 334.136 136.39 333.8 135.838 333.656C135.526 333.56 134.422 333.536 134.422 333.536V333.2H141.046V333.536C141.046 333.536 139.942 333.56 139.63 333.656C139.078 333.8 138.886 334.136 138.814 334.592C138.742 334.904 138.742 335.72 138.742 336.344V346.856C138.742 347.48 138.742 348.296 138.814 348.608C138.886 349.064 139.078 349.4 139.63 349.544C139.942 349.64 141.046 349.664 141.046 349.664V350H134.422V349.664C134.422 349.664 135.526 349.64 135.838 349.544C136.39 349.4 136.582 349.064 136.654 348.608C136.726 348.296 136.726 347.72 136.726 347.264ZM153.236 349.664L155.588 349.472V334.688L151.388 350H151.004L146.132 333.848V349.448L148.7 349.664V350H143.444V349.664C143.444 349.664 144.548 349.64 144.86 349.544C145.412 349.4 145.604 349.064 145.676 348.608C145.748 348.296 145.748 347.72 145.748 347.264V336.344C145.748 335.72 145.748 334.904 145.676 334.592C145.604 334.136 145.412 333.8 144.86 333.656C144.548 333.56 143.444 333.536 143.444 333.536V333.2H148.028L152.012 346.304L155.588 333.2H159.908V333.536C159.908 333.536 158.804 333.56 158.492 333.656C157.94 333.8 157.748 334.136 157.676 334.592C157.604 334.904 157.604 335.72 157.604 336.344V347.264C157.604 347.72 157.604 348.296 157.676 348.608C157.748 349.064 157.94 349.4 158.492 349.544C158.804 349.64 159.908 349.664 159.908 349.664V350H153.236V349.664ZM169.725 350H162.309V349.664C162.309 349.664 163.413 349.64 163.725 349.544C164.277 349.4 164.469 349.064 164.541 348.608C164.613 348.296 164.613 347.48 164.613 346.856V335.936C164.613 335.48 164.613 334.904 164.541 334.592C164.469 334.136 164.277 333.8 163.725 333.656C163.413 333.56 162.309 333.536 162.309 333.536V333.2H167.469C173.973 333.2 175.173 336.008 175.173 337.424C175.173 339.944 172.437 341.576 168.837 341.576H168.213V341.192H168.861C171.429 341.192 173.157 339.656 173.157 337.472C173.157 334.808 170.733 333.584 167.445 333.584H166.629V348.488L166.605 349.448L169.725 349.688V350ZM177.091 341.576C177.091 336.344 179.803 333.008 183.691 333.008C188.683 333.008 191.683 337.448 191.683 341.576C191.683 346.64 188.707 350.192 184.795 350.192C179.947 350.192 177.091 345.632 177.091 341.576ZM190.363 344.072C190.363 339.728 187.531 334.016 182.443 334.016C179.587 334.016 178.435 336.152 178.435 338.816C178.435 343.472 181.219 349.184 185.971 349.184C189.019 349.184 190.363 346.856 190.363 344.072ZM205.996 347.096L205.756 346.64C205.756 346.64 206.62 348.032 207.028 348.512C207.46 348.992 207.796 349.256 208.276 349.448C208.708 349.616 210.1 349.664 210.1 349.664V350H204.7V349.664L205.972 349.568L202.228 341.432C201.652 341.528 201.028 341.576 200.38 341.576H199.756V341.192H200.404C202.972 341.192 204.7 339.656 204.7 337.472C204.7 334.808 202.276 333.584 198.988 333.584H198.172V348.488L198.148 349.448L201.268 349.688V350H193.852V349.664C193.852 349.664 194.956 349.64 195.268 349.544C195.82 349.4 196.012 349.064 196.084 348.608C196.156 348.296 196.156 347.48 196.156 346.856V335.936C196.156 335.48 196.156 334.904 196.084 334.592C196.012 334.136 195.82 333.8 195.268 333.656C194.956 333.56 193.852 333.536 193.852 333.536V333.2H199.012C205.516 333.2 206.716 336.008 206.716 337.424C206.716 339.32 205.156 340.712 202.852 341.288L205.996 347.096ZM210.957 333.224L216.693 333.2H224.445L224.373 331.112H224.709L224.973 333.488L226.029 342.104L225.693 342.152C225.693 342.152 225.285 339.608 225.117 338.408C224.613 334.808 223.893 333.656 221.349 333.608C220.845 333.608 219.957 333.584 219.957 333.584H218.709V349.496L220.893 349.664V350H214.461V349.688C214.461 349.688 215.517 349.664 215.805 349.592C216.381 349.424 216.525 349.112 216.597 348.68C216.645 348.392 216.693 347.792 216.693 347.384V333.608H215.445C215.445 333.608 214.557 333.632 214.053 333.632C211.509 333.68 210.789 334.832 210.285 338.432C210.117 339.632 209.709 342.176 209.709 342.176L209.373 342.128L210.429 333.512L210.693 331.136H211.029L210.957 333.224ZM245.662 349.664L248.014 349.472V334.688L243.814 350H243.43L238.558 333.848V349.448L241.126 349.664V350H235.87V349.664C235.87 349.664 236.974 349.64 237.286 349.544C237.838 349.4 238.03 349.064 238.102 348.608C238.174 348.296 238.174 347.72 238.174 347.264V336.344C238.174 335.72 238.174 334.904 238.102 334.592C238.03 334.136 237.838 333.8 237.286 333.656C236.974 333.56 235.87 333.536 235.87 333.536V333.2H240.454L244.438 346.304L248.014 333.2H252.334V333.536C252.334 333.536 251.23 333.56 250.918 333.656C250.366 333.8 250.174 334.136 250.102 334.592C250.03 334.904 250.03 335.72 250.03 336.344V347.264C250.03 347.72 250.03 348.296 250.102 348.608C250.174 349.064 250.366 349.4 250.918 349.544C251.23 349.64 252.334 349.664 252.334 349.664V350H245.662V349.664ZM256.559 335.384C256.559 333.536 258.143 332.84 259.991 332.84C261.839 332.84 263.951 333.536 264.959 334.496L264.647 331.808L264.983 331.76L266.783 342.224C267.263 343.112 267.575 344.168 267.575 345.488C267.575 348.32 265.055 350.336 261.935 350.336C256.199 350.336 255.479 345.128 255.815 342.752L253.247 344.6L253.055 344.336L259.223 339.032C257.711 338.096 256.559 337.016 256.559 335.384ZM260.423 338L262.679 336.056L262.895 336.32L260.879 338.192C262.727 338.912 264.863 339.752 266.207 341.408C266.087 340.832 265.943 340.256 265.799 339.776C264.503 335.216 261.527 333.272 259.439 333.272C258.143 333.272 257.183 334.016 257.183 335.336C257.183 336.632 258.623 337.28 260.423 338ZM259.679 339.32L258.671 340.256C255.863 342.872 256.775 349.952 261.647 349.952C264.095 349.952 265.727 348.056 265.727 345.776C265.727 342.296 262.343 340.904 259.679 339.32ZM272.53 347.264V335.936C272.53 335.48 272.53 334.904 272.458 334.592C272.386 334.136 272.194 333.8 271.642 333.656C271.33 333.56 270.226 333.536 270.226 333.536V333.2H281.77L285.082 340.136L284.746 340.304L283.738 338.192C282.514 335.696 280.882 333.824 278.53 333.656C278.026 333.608 277.45 333.584 276.922 333.584H274.546V338.312H278.218L277.33 336.248L277.642 336.104L283.114 346.256L282.826 346.424C282.826 346.424 279.922 341.216 279.298 340.376C278.338 339.056 277.306 338.696 275.746 338.696H274.546V349.4L278.17 349.664V350H270.226V349.664C270.226 349.664 271.33 349.64 271.642 349.544C272.194 349.4 272.386 349.064 272.458 348.608C272.53 348.296 272.53 347.72 272.53 347.264ZM287.165 335.384C287.165 333.536 288.749 332.84 290.597 332.84C292.445 332.84 294.557 333.536 295.565 334.496L295.253 331.808L295.589 331.76L297.389 342.224C297.869 343.112 298.181 344.168 298.181 345.488C298.181 348.32 295.661 350.336 292.541 350.336C286.805 350.336 286.085 345.128 286.421 342.752L283.853 344.6L283.661 344.336L289.829 339.032C288.317 338.096 287.165 337.016 287.165 335.384ZM291.029 338L293.285 336.056L293.501 336.32L291.485 338.192C293.333 338.912 295.469 339.752 296.813 341.408C296.693 340.832 296.549 340.256 296.405 339.776C295.109 335.216 292.133 333.272 290.045 333.272C288.749 333.272 287.789 334.016 287.789 335.336C287.789 336.632 289.229 337.28 291.029 338ZM290.285 339.32L289.277 340.256C286.469 342.872 287.381 349.952 292.253 349.952C294.701 349.952 296.333 348.056 296.333 345.776C296.333 342.296 292.949 340.904 290.285 339.32ZM316.402 350H308.986V349.664C308.986 349.664 310.09 349.64 310.402 349.544C310.954 349.4 311.146 349.064 311.218 348.608C311.29 348.296 311.29 347.48 311.29 346.856V335.936C311.29 335.48 311.29 334.904 311.218 334.592C311.146 334.136 310.954 333.8 310.402 333.656C310.09 333.56 308.986 333.536 308.986 333.536V333.2H313.882C319.978 333.2 322.738 335.864 322.738 339.416C322.738 342.704 320.074 345.416 315.274 345.416H314.506V345.032H315.034C318.682 345.032 320.722 342.392 320.722 339.392C320.722 335.312 317.17 333.584 313.882 333.584H313.306V348.488L313.282 349.448L316.402 349.688V350ZM331.594 333.2V333.536L329.242 333.728L329.194 349.616C329.338 349.616 333.442 349.664 334.906 349.544C336.394 349.448 337.474 349.328 337.954 346.712C338.362 344.552 338.866 339.848 338.866 339.848H339.202L338.146 350H324.898V349.664C324.898 349.664 326.002 349.64 326.314 349.544C326.89 349.4 327.058 349.064 327.13 348.608C327.202 348.296 327.202 347.72 327.226 347.264V335.936C327.202 335.48 327.202 334.904 327.13 334.592C327.058 334.136 326.89 333.8 326.314 333.656C326.002 333.56 324.898 333.536 324.898 333.536V333.2H331.594ZM352.529 333.536V333.2H357.425V333.536C357.425 333.536 356.321 333.56 356.009 333.656C355.433 333.8 355.265 334.136 355.169 334.592C355.121 334.88 355.121 335.408 355.097 335.84L355.121 350H354.737L343.217 334.376V349.472L345.689 349.664V350H340.529V349.664C340.529 349.664 341.633 349.64 341.945 349.544C342.497 349.4 342.689 349.064 342.761 348.608C342.833 348.296 342.833 347.72 342.833 347.264V336.344C342.833 335.72 342.833 334.904 342.761 334.592C342.689 334.136 342.497 333.8 341.945 333.656C341.633 333.56 340.529 333.536 340.529 333.536V333.2H344.849L354.737 346.592L354.713 333.8L352.529 333.536Z" fill="white"/>
</svg>
