<?xml version="1.0" encoding="utf-8"?>
<!-- Svg Vector Icons : http://www.onlinewebfonts.com/icon -->
<!DOCTYPE svg PUBLIC "-//W3C//DTD SVG 1.1//EN" "http://www.w3.org/Graphics/SVG/1.1/DTD/svg11.dtd">
<svg version="1.1" xmlns="http://www.w3.org/2000/svg" xmlns:xlink="http://www.w3.org/1999/xlink" x="0px" y="0px" viewBox="0 0 256 256" enable-background="new 0 0 256 256" xml:space="preserve">
<metadata> Svg Vector Icons : http://www.onlinewebfonts.com/icon </metadata>
<g><g><path fill="#000000" d="M72.6,126.6c-2.6,2.6-2.6,6.7,0,9.2l50.7,50.7c0,0,0,0,0,0c1.2,1.2,2.8,2,4.6,2c1.8,0,3.4-0.7,4.6-2c0,0,0,0,0.1,0l50.7-50.7c2.6-2.6,2.6-6.7,0-9.2c-2.6-2.6-6.7-2.6-9.2,0l-39.8,39.8v-150c0-3.5-2.9-6.4-6.4-6.4c-3.5,0-6.4,2.9-6.4,6.4v150l-39.8-39.8C79.3,124.1,75.2,124.1,72.6,126.6z M198.2,41.9h-31.9v12.8h31.9c14.1,0,25.5,11.4,25.5,25.5v127.6c0,14.1-11.4,25.5-25.5,25.5H57.8c-14.1,0-25.5-11.4-25.5-25.5V80.2c0-14.1,11.4-25.5,25.5-25.5h31.9V41.9H57.8c-21.1,0-38.3,17.1-38.3,38.3v127.6c0,21.1,17.1,38.3,38.3,38.3h140.3c21.1,0,38.3-17.1,38.3-38.3V80.2C236.5,59,219.3,41.9,198.2,41.9z"/></g></g>
</svg>